<svg width="14" height="14" viewBox="0 0 14 14" fill="none" xmlns="http://www.w3.org/2000/svg">
<path fill-rule="evenodd" clip-rule="evenodd" d="M4.10998 1.33333C2.42331 1.33333 1.33331 2.48866 1.33331 4.27733V9.72266C1.33331 11.5113 2.42331 12.6667 4.10998 12.6667H9.88865C11.576 12.6667 12.6666 11.5113 12.6666 9.72266V4.27733C12.6666 2.48866 11.576 1.33333 9.88931 1.33333H4.10998ZM9.88865 13.6667H4.10998C1.85065 13.6667 0.333313 12.0813 0.333313 9.72266V4.27733C0.333313 1.91866 1.85065 0.333328 4.10998 0.333328H9.88931C12.1486 0.333328 13.6666 1.91866 13.6666 4.27733V9.72266C13.6666 12.0813 12.1486 13.6667 9.88865 13.6667Z" fill="#0F67FE"/>
<path fill-rule="evenodd" clip-rule="evenodd" d="M6.20896 9.082C6.08163 9.082 5.95296 9.03333 5.85563 8.93533L4.27296 7.35333C4.07763 7.158 4.07763 6.842 4.27296 6.64667C4.4683 6.45133 4.7843 6.45133 4.97963 6.64667L6.20896 7.87467L9.01963 5.06467C9.21496 4.86933 9.53096 4.86933 9.7263 5.06467C9.92163 5.26 9.92163 5.576 9.7263 5.77133L6.5623 8.93533C6.46496 9.03333 6.33696 9.082 6.20896 9.082Z" fill="#0F67FE"/>
</svg>
