<svg width="24" height="24" viewBox="0 0 24 24" fill="none" xmlns="http://www.w3.org/2000/svg">
<path fill-rule="evenodd" clip-rule="evenodd" d="M10.9215 0.0426841C9.49163 0.178407 7.89236 0.634441 6.65456 1.25945C5.374 1.90603 4.03356 2.92911 3.11504 3.96095C1.31335 5.98492 0.291008 8.32475 0.0440865 10.9896C-0.149803 13.0821 0.302871 15.4415 1.26336 17.3443C1.90983 18.6251 2.93273 19.9657 3.9644 20.8844C5.98802 22.6864 8.32745 23.7089 10.9919 23.9559C13.084 24.1498 15.4429 23.6971 17.3454 22.7364C18.626 22.0898 19.9664 21.0668 20.885 20.0349C22.6867 18.0109 23.709 15.6711 23.9559 13.0062C24.1498 10.9138 23.6971 8.55441 22.7366 6.65158C22.0902 5.3708 21.0673 4.03013 20.0356 3.11145C18.012 1.30944 15.6726 0.286928 13.0081 0.039964C12.4222 -0.0143437 11.5099 -0.0131713 10.9215 0.0426841ZM18.3338 8.48463C19.2527 9.48988 19.278 9.5229 19.1922 9.60366C19.1436 9.64938 17.2364 11.3813 14.9541 13.4522C12.6717 15.5232 10.7457 17.2718 10.674 17.338L10.5436 17.4583L7.91927 14.8339L5.29499 12.2095L6.29098 11.2126L7.28692 10.2156L8.95817 11.8867C9.87735 12.8058 10.6477 13.5464 10.67 13.5325C10.6923 13.5186 12.2087 12.1445 14.0397 10.4789C15.8708 8.81329 17.373 7.45016 17.3779 7.44969C17.3829 7.44922 17.8131 7.91496 18.3338 8.48463Z" fill="#0F67FE"/>
</svg>
