<svg width="24" height="16" viewBox="0 0 24 16" fill="none" xmlns="http://www.w3.org/2000/svg">
<path fill-rule="evenodd" clip-rule="evenodd" d="M1.54806 0.0697557C0.855206 0.246303 0.252913 0.824258 0.0723513 1.48573C0.00888296 1.71833 7.05017e-05 2.51283 7.05017e-05 7.99912C7.05017e-05 14.829 -0.0116951 14.5229 0.268756 14.9768C0.444255 15.2608 0.748707 15.5546 1.039 15.7201C1.56428 16.0195 0.791034 15.9997 12 15.9997C23.209 15.9997 22.4357 16.0195 22.961 15.7201C23.2513 15.5546 23.5557 15.2608 23.7312 14.9768C24.0117 14.5229 23.9999 14.829 23.9999 7.99912C23.9999 1.16922 24.0117 1.47537 23.7312 1.02147C23.5557 0.737451 23.2513 0.443651 22.961 0.278172C22.4354 -0.0214067 23.2128 -0.00180514 11.9784 0.00143955C3.17715 0.00397308 1.77011 0.0131736 1.54806 0.0697557ZM21.5624 1.34741C21.5624 1.35594 19.6855 3.12697 17.3914 5.28304C13.564 8.88021 13.1956 9.21414 12.9191 9.33687C12.3199 9.60271 11.6801 9.60271 11.0809 9.33687C10.8044 9.21414 10.436 8.88021 6.60856 5.28304C4.31451 3.12697 2.43756 1.35594 2.43756 1.34741C2.43756 1.33892 6.74066 1.33194 12 1.33194C17.2593 1.33194 21.5624 1.33892 21.5624 1.34741ZM7.45315 7.99765C7.45315 8.02001 6.72941 8.70473 2.84771 12.3547L1.40631 13.7101V8.00623V2.30237L4.42973 5.13792C6.09261 6.69746 7.45315 7.98432 7.45315 7.99765ZM22.5823 10.8392L22.5703 13.6792L19.5468 10.8413L16.5234 8.00352L19.5468 5.16379L22.5703 2.32402L22.5823 5.16157C22.589 6.72222 22.589 9.27713 22.5823 10.8392ZM9.07108 9.5139C9.70586 10.1206 10.0485 10.3715 10.5524 10.5984C11.3854 10.9735 12.5288 10.9892 13.3718 10.6372C13.8587 10.4339 14.1964 10.1916 14.8689 9.56324L15.5112 8.96302L18.5368 11.7985C20.2009 13.3581 21.5624 14.6413 21.5624 14.6502C21.5624 14.6591 17.2541 14.6656 11.9883 14.6647L2.41412 14.6631L5.43754 11.822C7.10042 10.2594 8.47183 8.98004 8.48515 8.97893C8.49841 8.97786 8.76208 9.21859 9.07108 9.5139Z" fill="#4B789F"/>
</svg>
