<svg width="25" height="24" viewBox="0 0 25 24" fill="none" xmlns="http://www.w3.org/2000/svg">
<path d="M20.937 10.9999H4.063C3.66517 10.9999 3.28364 10.8419 3.00234 10.5606C2.72104 10.2793 2.563 9.89777 2.563 9.49994V5.56494C2.563 5.16712 2.72104 4.78559 3.00234 4.50428C3.28364 4.22298 3.66517 4.06494 4.063 4.06494H20.937C21.3348 4.06494 21.7164 4.22298 21.9977 4.50428C22.279 4.78559 22.437 5.16712 22.437 5.56494V9.49494C22.4377 9.69234 22.3993 9.88794 22.3243 10.0705C22.2492 10.2531 22.1388 10.419 21.9994 10.5588C21.8601 10.6987 21.6945 10.8096 21.5122 10.8853C21.3299 10.961 21.1344 10.9999 20.937 10.9999ZM4.063 5.06494C3.93039 5.06494 3.80321 5.11762 3.70945 5.21139C3.61568 5.30516 3.563 5.43233 3.563 5.56494V9.49494C3.563 9.62755 3.61568 9.75473 3.70945 9.8485C3.80321 9.94226 3.93039 9.99494 4.063 9.99494H20.937C21.0696 9.99494 21.1968 9.94226 21.2906 9.8485C21.3843 9.75473 21.437 9.62755 21.437 9.49494V5.56494C21.437 5.43233 21.3843 5.30516 21.2906 5.21139C21.1968 5.11762 21.0696 5.06494 20.937 5.06494H4.063ZM20.937 19.9349H4.063C3.66517 19.9349 3.28364 19.7769 3.00234 19.4956C2.72104 19.2143 2.563 18.8328 2.563 18.4349V14.5049C2.563 14.1071 2.72104 13.7256 3.00234 13.4443C3.28364 13.163 3.66517 13.0049 4.063 13.0049H20.937C21.3348 13.0049 21.7164 13.163 21.9977 13.4443C22.279 13.7256 22.437 14.1071 22.437 14.5049V18.4349C22.437 18.8328 22.279 19.2143 21.9977 19.4956C21.7164 19.7769 21.3348 19.9349 20.937 19.9349ZM4.063 14.0049C3.93039 14.0049 3.80321 14.0576 3.70945 14.1514C3.61568 14.2452 3.563 14.3723 3.563 14.5049V18.4349C3.563 18.5675 3.61568 18.6947 3.70945 18.7885C3.80321 18.8823 3.93039 18.9349 4.063 18.9349H20.937C21.0696 18.9349 21.1968 18.8823 21.2906 18.7885C21.3843 18.6947 21.437 18.5675 21.437 18.4349V14.5049C21.437 14.3723 21.3843 14.2452 21.2906 14.1514C21.1968 14.0576 21.0696 14.0049 20.937 14.0049H4.063Z" fill="#4B789F"/>
<path d="M6.063 8.03003C6.33914 8.03003 6.563 7.80617 6.563 7.53003C6.563 7.25389 6.33914 7.03003 6.063 7.03003C5.78686 7.03003 5.563 7.25389 5.563 7.53003C5.563 7.80617 5.78686 8.03003 6.063 8.03003Z" fill="#4B789F"/>
<path d="M8.063 8.03003C8.33914 8.03003 8.563 7.80617 8.563 7.53003C8.563 7.25389 8.33914 7.03003 8.063 7.03003C7.78686 7.03003 7.563 7.25389 7.563 7.53003C7.563 7.80617 7.78686 8.03003 8.063 8.03003Z" fill="#4B789F"/>
<path d="M13.952 8.03003C13.8194 8.03003 13.6922 7.97735 13.5984 7.88358C13.5047 7.78981 13.452 7.66264 13.452 7.53003C13.452 7.39742 13.5047 7.27024 13.5984 7.17648C13.6922 7.08271 13.8194 7.03003 13.952 7.03003H18.952C19.0846 7.03003 19.2118 7.08271 19.3056 7.17648C19.3993 7.27024 19.452 7.39742 19.452 7.53003C19.452 7.66264 19.3993 7.78981 19.3056 7.88358C19.2118 7.97735 19.0846 8.03003 18.952 8.03003H13.952Z" fill="#4B789F"/>
<path d="M6.063 16.97C6.33914 16.97 6.563 16.7461 6.563 16.47C6.563 16.1938 6.33914 15.97 6.063 15.97C5.78686 15.97 5.563 16.1938 5.563 16.47C5.563 16.7461 5.78686 16.97 6.063 16.97Z" fill="#4B789F"/>
<path d="M8.063 16.97C8.33914 16.97 8.563 16.7461 8.563 16.47C8.563 16.1938 8.33914 15.97 8.063 15.97C7.78686 15.97 7.563 16.1938 7.563 16.47C7.563 16.7461 7.78686 16.97 8.063 16.97Z" fill="#4B789F"/>
<path d="M13.952 16.97C13.8194 16.97 13.6922 16.9173 13.5984 16.8235C13.5047 16.7298 13.452 16.6026 13.452 16.47C13.452 16.3374 13.5047 16.2102 13.5984 16.1164C13.6922 16.0226 13.8194 15.97 13.952 15.97H18.952C19.0846 15.97 19.2118 16.0226 19.3056 16.1164C19.3993 16.2102 19.452 16.3374 19.452 16.47C19.452 16.6026 19.3993 16.7298 19.3056 16.8235C19.2118 16.9173 19.0846 16.97 18.952 16.97H13.952Z" fill="#4B789F"/>
</svg>
