<svg width="25" height="24" viewBox="0 0 25 24" fill="none" xmlns="http://www.w3.org/2000/svg">
<g clip-path="url(#clip0_1347_22935)">
<path d="M23 13.5V17.625C23 18.75 22.325 19.725 21.275 20.25L20 20.85L18.725 20.25C17.675 19.8 17 18.75 17 17.625V13.5H23ZM24.5 12H15.5V17.625C15.5 19.275 16.475 20.85 18.05 21.6L20 22.5L21.95 21.6C23.525 20.85 24.5 19.35 24.5 17.625V12Z" fill="#4B789F"/>
<path d="M12.5 18.75H6.125C3.05 18.75 0.5 16.2 0.5 13.125C0.5 10.35 2.525 8.1 5.15 7.575C5.825 4.05 8.9 1.5 12.5 1.5C16.625 1.5 20 4.875 20 9H18.5C18.5 5.7 15.8 3 12.5 3C9.425 3 6.875 5.325 6.5 8.325V9H5.825C3.65 9.15 2 10.95 2 13.125C2 15.375 3.875 17.25 6.125 17.25H12.5V18.75Z" fill="#4B789F"/>
</g>
<defs>
<clipPath id="clip0_1347_22935">
<rect width="24" height="24" fill="white" transform="translate(0.5)"/>
</clipPath>
</defs>
</svg>
