<svg width="25" height="24" viewBox="0 0 25 24" fill="none" xmlns="http://www.w3.org/2000/svg">
<path d="M15.5 13.5V18.375C15.5 19.8 16.325 21.15 17.675 21.75L19.25 22.5L20.825 21.75C22.1 21.15 23 19.8 23 18.375V13.5H15.5ZM21.5 18.375C21.5 19.275 20.975 20.025 20.225 20.4L19.25 20.85L18.275 20.4C17.525 20.025 17 19.2 17 18.375V15H21.5V18.375ZM12.5 15C10.85 15 9.5 13.65 9.5 12C9.5 10.35 10.85 9 12.5 9C14.15 9 15.5 10.35 15.5 12H14C14 11.175 13.325 10.5 12.5 10.5C11.675 10.5 11 11.175 11 12C11 12.825 11.675 13.5 12.5 13.5V15Z" fill="#4B789F"/>
<path d="M12.5 18.75C8.75 18.75 5.75 15.75 5.75 12C5.75 8.25 8.75 5.25 12.5 5.25C16.25 5.25 19.25 8.25 19.25 12H17.75C17.75 9.075 15.425 6.75 12.5 6.75C9.575 6.75 7.25 9.075 7.25 12C7.25 14.925 9.575 17.25 12.5 17.25V18.75Z" fill="#4B789F"/>
<path d="M12.5 22.5C6.725 22.5 2 17.775 2 12C2 6.225 6.725 1.5 12.5 1.5C18.275 1.5 23 6.225 23 12H21.5C21.5 7.05 17.45 3 12.5 3C7.55 3 3.5 7.05 3.5 12C3.5 16.95 7.55 21 12.5 21V22.5Z" fill="#4B789F"/>
</svg>
