<svg width="25" height="24" viewBox="0 0 25 24" fill="none" xmlns="http://www.w3.org/2000/svg">
<path d="M20 8.547C19.5772 8.85691 19.1227 9.1209 18.644 9.3345C17.033 10.0665 14.8595 10.5 12.5 10.5C10.1405 10.5 7.967 10.0665 6.356 9.3345C5.87732 9.1209 5.42275 8.85691 5 8.547V10.5C5 11.061 5.534 11.8125 6.977 12.4695C8.351 13.0935 10.304 13.5 12.5 13.5C13.499 13.5 14.447 13.416 15.314 13.266C14.669 13.731 14.108 14.3055 13.661 14.964C13.2745 14.9882 12.8873 15.0002 12.5 15C10.1405 15 7.967 14.5665 6.356 13.8345C5.87732 13.6209 5.42275 13.3569 5 13.047V15C5 15.561 5.534 16.3125 6.977 16.9695C8.351 17.5935 10.304 18 12.5 18H12.5405C12.4968 18.3985 12.4882 18.8 12.515 19.2C12.5047 19.2997 12.4997 19.3998 12.5 19.5C10.1405 19.5 7.967 19.0665 6.356 18.3345C5.8773 18.1209 5.42273 17.8569 5 17.547V19.5C5 20.061 5.534 20.8125 6.977 21.4695C8.351 22.0935 10.304 22.5 12.5 22.5C12.5 23.0445 12.6455 23.556 12.899 23.9955C12.767 24 12.6335 24 12.5 24C10.1405 24 7.967 23.5665 6.356 22.8345C4.8125 22.1325 3.5 21.0105 3.5 19.5V6C3.5 4.4895 4.8125 3.3675 6.356 2.6655C7.967 1.9335 10.1405 1.5 12.5 1.5C14.8595 1.5 17.033 1.9335 18.644 2.6655C20.1875 3.3675 21.5 4.4895 21.5 6V12.384C20.657 12.0863 19.7631 11.9594 18.8705 12.0105C19.6805 11.481 20 10.9335 20 10.5V8.547ZM6.977 4.032C5.534 4.686 5 5.4375 5 6C5 6.561 5.534 7.3125 6.977 7.9695C8.351 8.5935 10.304 9 12.5 9C14.696 9 16.649 8.595 18.023 7.9695C19.466 7.3125 20 6.5595 20 6C20 5.439 19.466 4.6875 18.023 4.0305C16.649 3.4065 14.696 3 12.5 3C10.304 3 8.351 3.4065 6.977 4.032Z" fill="#4B789F"/>
<path d="M14 19.5C14 19.1022 14.158 18.7206 14.4393 18.4393C14.7206 18.158 15.1022 18 15.5 18V16.5C15.5 15.7044 15.8161 14.9413 16.3787 14.3787C16.9413 13.8161 17.7044 13.5 18.5 13.5C19.2956 13.5 20.0587 13.8161 20.6213 14.3787C21.1839 14.9413 21.5 15.7044 21.5 16.5V18C21.8978 18 22.2794 18.158 22.5607 18.4393C22.842 18.7206 23 19.1022 23 19.5V22.5C23 22.8978 22.842 23.2794 22.5607 23.5607C22.2794 23.842 21.8978 24 21.5 24H15.5C15.1022 24 14.7206 23.842 14.4393 23.5607C14.158 23.2794 14 22.8978 14 22.5V19.5ZM18.5 15C18.1022 15 17.7206 15.158 17.4393 15.4393C17.158 15.7206 17 16.1022 17 16.5V18H20V16.5C20 16.1022 19.842 15.7206 19.5607 15.4393C19.2794 15.158 18.8978 15 18.5 15Z" fill="#4B789F"/>
</svg>
