<svg width="23" height="22" viewBox="0 0 23 22" fill="none" xmlns="http://www.w3.org/2000/svg">
<path d="M6.50002 13C6.0635 13.0007 5.63239 13.0966 5.23676 13.281C4.84113 13.4655 4.49053 13.734 4.20941 14.068C3.9283 14.4019 3.72344 14.7932 3.60915 15.2145C3.49485 15.6358 3.47387 16.0769 3.54767 16.5072C3.62146 16.9374 3.78826 17.3463 4.03641 17.7055C4.28457 18.0646 4.6081 18.3652 4.98444 18.5864C5.36077 18.8076 5.78084 18.944 6.21532 18.986C6.64981 19.0281 7.08824 18.9749 7.50002 18.83" stroke="#4B789F" stroke-width="1.5" stroke-linecap="round" stroke-linejoin="round"/>
<path d="M3.764 14.605C3.16557 14.3169 2.64829 13.8843 2.25886 13.3463C1.86942 12.8083 1.62009 12.1817 1.53336 11.5233C1.44664 10.8648 1.52524 10.195 1.76209 9.57453C1.99894 8.95402 2.38657 8.40225 2.89001 7.96902M2.92001 7.88802C2.59205 7.39727 2.44831 6.80631 2.51423 6.21975C2.58015 5.63319 2.85148 5.08888 3.28018 4.68317C3.70889 4.27745 4.26732 4.03651 4.85661 4.00299C5.44591 3.96947 6.02806 4.14554 6.50001 4.50002M11.5 3.50002C11.4999 3.1254 11.4157 2.75558 11.2535 2.41791C11.0913 2.08023 10.8552 1.78332 10.5628 1.54914C10.2704 1.31495 9.92916 1.14947 9.5642 1.06492C9.19925 0.980379 8.81996 0.978935 8.45437 1.0607C8.08878 1.14246 7.74624 1.30534 7.45207 1.53729C7.1579 1.76925 6.91962 2.06434 6.75484 2.40078C6.59006 2.73721 6.50299 3.10637 6.50008 3.48098C6.49717 3.85559 6.57848 4.22606 6.73801 4.56502M7.50001 19C7.50001 19.5305 7.71072 20.0392 8.08579 20.4142C8.46086 20.7893 8.96957 21 9.5 21C10.0304 21 10.5391 20.7893 10.9142 20.4142C11.2893 20.0392 11.5 19.5305 11.5 19M16.5 13C16.9365 13.0007 17.3676 13.0966 17.7633 13.281C18.1589 13.4655 18.5095 13.7341 18.7906 14.068C19.0717 14.402 19.2766 14.7932 19.3909 15.2145C19.5052 15.6358 19.5262 16.077 19.4524 16.5072C19.3786 16.9374 19.2118 17.3464 18.9636 17.7055C18.7155 18.0646 18.3919 18.3652 18.0156 18.5864C17.6393 18.8076 17.2192 18.944 16.7847 18.986C16.3502 19.0281 15.9118 18.9749 15.5 18.83" stroke="#4B789F" stroke-width="1.5" stroke-linecap="round" stroke-linejoin="round"/>
<path d="M19.236 14.605C19.8344 14.3169 20.3517 13.8843 20.7411 13.3463C21.1306 12.8083 21.3799 12.1817 21.4666 11.5233C21.5534 10.8648 21.4748 10.195 21.2379 9.57453C21.0011 8.95402 20.6134 8.40225 20.11 7.96902M20.08 7.88802C20.408 7.39727 20.5517 6.80631 20.4858 6.21975C20.4199 5.63319 20.1485 5.08888 19.7198 4.68317C19.2911 4.27745 18.7327 4.03651 18.1434 4.00299C17.5541 3.96947 16.9719 4.14554 16.5 4.50002M11.5 3.50002C11.5001 3.1254 11.5843 2.75558 11.7465 2.41791C11.9087 2.08023 12.1448 1.78332 12.4372 1.54914C12.7296 1.31495 13.0708 1.14947 13.4358 1.06492C13.8008 0.980379 14.18 0.978935 14.5456 1.0607C14.9112 1.14246 15.2538 1.30534 15.5479 1.53729C15.8421 1.76925 16.0804 2.06434 16.2452 2.40078C16.4099 2.73721 16.497 3.10637 16.4999 3.48098C16.5028 3.85559 16.4215 4.22606 16.262 4.56502M15.5 19C15.5 19.5305 15.2893 20.0392 14.9142 20.4142C14.5391 20.7893 14.0304 21 13.5 21C12.9696 21 12.4609 20.7893 12.0858 20.4142C11.7107 20.0392 11.5 19.5305 11.5 19M11.5 7.00002V11M11.5 15.01L11.51 14.999" stroke="#4B789F" stroke-width="1.5" stroke-linecap="round" stroke-linejoin="round"/>
</svg>
