<svg width="25" height="24" viewBox="0 0 25 24" fill="none" xmlns="http://www.w3.org/2000/svg">
<path d="M17.4474 8.81913C17.5081 8.76038 17.5566 8.69025 17.5902 8.61274C17.6237 8.53524 17.6417 8.45189 17.6431 8.36744C17.6444 8.28299 17.6291 8.1991 17.598 8.12056C17.567 8.04203 17.5207 7.97038 17.462 7.90971C17.4032 7.84904 17.3331 7.80053 17.2556 7.76696C17.1781 7.7334 17.0947 7.71542 17.0103 7.71407C16.9258 7.71272 16.842 7.72801 16.7634 7.75908C16.6849 7.79015 16.6132 7.83638 16.5526 7.89514L10.3434 13.9037L8.43199 12.1671C8.30496 12.0582 8.14048 12.0032 7.97349 12.0136C7.8065 12.024 7.65016 12.0992 7.53768 12.223C7.42519 12.3469 7.36544 12.5097 7.3711 12.6769C7.37676 12.8442 7.44739 13.0026 7.56799 13.1186L9.92513 15.2614C10.046 15.3713 10.2042 15.431 10.3676 15.4285C10.5309 15.4259 10.6872 15.3613 10.8046 15.2477L17.4474 8.81913Z" fill="#4B789F"/>
<path d="M3.5 10.417C3.5 7.219 3.5 5.62 3.878 5.082C4.255 4.545 5.758 4.03 8.765 3.001L9.338 2.805C10.905 2.268 11.688 2 12.5 2C13.311 2 14.095 2.268 15.662 2.805L16.235 3.001C19.242 4.03 20.745 4.545 21.122 5.082C21.5 5.62 21.5 7.22 21.5 10.417V11.991C21.5 17.629 17.261 20.366 14.601 21.527C13.88 21.842 13.52 22 12.5 22C11.48 22 11.12 21.842 10.399 21.527C7.739 20.365 3.5 17.63 3.5 11.991V10.417Z" stroke="#4B789F" stroke-width="1.5"/>
</svg>
