<svg width="25" height="24" viewBox="0 0 25 24" fill="none" xmlns="http://www.w3.org/2000/svg">
<path d="M21.5 12.75V16.5H3.5V4.5H11V3H3.5C3.10218 3 2.72064 3.15804 2.43934 3.43934C2.15804 3.72064 2 4.10218 2 4.5V16.5C2 16.8978 2.15804 17.2794 2.43934 17.5607C2.72064 17.842 3.10218 18 3.5 18H9.5V21H6.5V22.5H18.5V21H15.5V18H21.5C21.8978 18 22.2794 17.842 22.5607 17.5607C22.842 17.2794 23 16.8978 23 16.5V12.75H21.5ZM14 21H11V18H14V21Z" fill="#4B789F"/>
<path d="M23 7.5V6H21.4242C21.3275 5.53052 21.1411 5.08411 20.8752 4.68525L21.9928 3.56775L20.9323 2.50725L19.8148 3.62475C19.4159 3.35888 18.9695 3.17248 18.5 3.07575V1.5H17V3.07575C16.5305 3.17248 16.0841 3.35888 15.6852 3.62475L14.5677 2.50725L13.5073 3.56775L14.6248 4.68525C14.3589 5.08411 14.1725 5.53052 14.0757 6H12.5V7.5H14.0757C14.1725 7.96948 14.3589 8.41589 14.6248 8.81475L13.5073 9.93225L14.5677 10.9928L15.6852 9.87525C16.0841 10.1411 16.5305 10.3275 17 10.4242V12H18.5V10.4242C18.9695 10.3275 19.4159 10.1411 19.8148 9.87525L20.9323 10.9928L21.9928 9.93225L20.8752 8.81475C21.1411 8.41589 21.3275 7.96948 21.4242 7.5H23ZM17.75 9C17.305 9 16.87 8.86804 16.5 8.62081C16.13 8.37357 15.8416 8.02217 15.6713 7.61104C15.501 7.1999 15.4564 6.7475 15.5432 6.31105C15.63 5.87459 15.8443 5.47368 16.159 5.15901C16.4737 4.84434 16.8746 4.63005 17.311 4.54323C17.7475 4.45642 18.1999 4.50097 18.611 4.67127C19.0222 4.84157 19.3736 5.12996 19.6208 5.49997C19.868 5.86998 20 6.30499 20 6.75C19.9994 7.34655 19.7622 7.9185 19.3403 8.34033C18.9185 8.76216 18.3466 8.9994 17.75 9Z" fill="#4B789F"/>
</svg>
