<svg width="57" height="56" viewBox="0 0 57 56" fill="none" xmlns="http://www.w3.org/2000/svg">
<path d="M28.5008 25.8C30.4454 25.8 32.3104 25.0204 33.6855 23.6326C35.0606 22.2448 35.8331 20.3626 35.8331 18.4C35.8331 16.4374 35.0606 14.5552 33.6855 13.1674C32.3104 11.7796 30.4454 11 28.5008 11C26.5561 11 24.6911 11.7796 23.316 13.1674C21.9409 14.5552 21.1684 16.4374 21.1684 18.4C21.1684 20.3626 21.9409 22.2448 23.316 23.6326C24.6911 25.0204 26.5561 25.8 28.5008 25.8ZM18.7243 23.3333C18.7243 24.6417 18.2093 25.8965 17.2926 26.8217C16.3758 27.7469 15.1325 28.2667 13.8361 28.2667C12.5396 28.2667 11.2963 27.7469 10.3796 26.8217C9.46283 25.8965 8.94782 24.6417 8.94782 23.3333C8.94782 22.0249 9.46283 20.7701 10.3796 19.8449C11.2963 18.9198 12.5396 18.4 13.8361 18.4C15.1325 18.4 16.3758 18.9198 17.2926 19.8449C18.2093 20.7701 18.7243 22.0249 18.7243 23.3333ZM7.70132 41.4041C7.28408 41.1648 6.97162 40.7755 6.82633 40.3139C6.39569 38.9062 6.39117 37.4009 6.81336 35.9906C7.23554 34.5803 8.06522 33.3293 9.19613 32.3978C10.327 31.4663 11.7077 30.8967 13.1613 30.7618C14.615 30.627 16.0754 30.9332 17.3556 31.6411C14.7248 34.2502 13.0782 37.7038 12.6995 41.4066C12.6433 41.9542 12.6653 42.4969 12.7606 43.0198C10.9768 42.8641 9.24917 42.3124 7.70132 41.4041ZM44.2409 43.0173C46.0245 42.8624 47.7522 42.3115 49.3002 41.4041C49.7165 41.1643 50.0281 40.7751 50.1728 40.3139C50.6041 38.906 50.6091 37.4003 50.1872 35.9896C49.7653 34.5789 48.9357 33.3274 47.8047 32.3955C46.6736 31.4636 45.2926 30.8937 43.8386 30.7589C42.3847 30.624 40.9239 30.9303 39.6435 31.6386C42.2766 34.2476 43.925 37.7022 44.3044 41.4066C44.3589 41.9446 44.3375 42.4878 44.2409 43.0198V43.0173ZM48.0537 23.3333C48.0537 24.6417 47.5387 25.8965 46.622 26.8217C45.7053 27.7469 44.4619 28.2667 43.1655 28.2667C41.869 28.2667 40.6257 27.7469 39.709 26.8217C38.7922 25.8965 38.2772 24.6417 38.2772 23.3333C38.2772 22.0249 38.7922 20.7701 39.709 19.8449C40.6257 18.9198 41.869 18.4 43.1655 18.4C44.4619 18.4 45.7053 18.9198 46.622 19.8449C47.5387 20.7701 48.0537 22.0249 48.0537 23.3333ZM17.0232 43.5353C16.7821 43.3174 16.5953 43.0454 16.4777 42.7412C16.36 42.4369 16.315 42.109 16.3462 41.784C16.657 38.7487 18.0718 35.9375 20.317 33.8937C22.5622 31.85 25.4784 30.7188 28.502 30.7188C31.5255 30.7188 34.4418 31.85 36.687 33.8937C38.9322 35.9375 40.3469 38.7487 40.6578 41.784C40.6892 42.1091 40.6442 42.437 40.5266 42.7413C40.409 43.0455 40.222 43.3176 39.9808 43.5353C36.8382 46.4138 32.7447 48.0058 28.5008 48C24.2576 48.0054 20.1651 46.4134 17.0232 43.5353Z" fill="#4B789F"/>
</svg>
