<svg width="57" height="56" viewBox="0 0 57 56" fill="none" xmlns="http://www.w3.org/2000/svg">
<path d="M19.7126 19.1058L20.0447 18.5277C20.3036 18.6764 20.6856 18.5707 20.8304 18.3185L20.8313 18.3169L23.0355 14.5007L23.0359 14.5C23.3174 14.014 23.89 13.7722 24.4395 13.9205C24.9848 14.0669 25.3632 14.5614 25.3632 15.1252V27.1221C25.3632 27.3771 25.5552 27.5345 25.6888 27.5458C25.812 27.5511 25.905 27.5116 25.9744 27.4425C26.0414 27.3754 26.078 27.2885 26.078 27.1898V19.3436C26.078 18.6545 26.6366 18.096 27.3256 18.096C28.0144 18.096 28.5733 18.6539 28.5733 19.3436V19.3436L28.5729 28.9732C28.5729 28.9732 28.5729 28.9732 28.5729 28.9732C28.5729 29.1696 28.7339 29.3306 28.9303 29.3306C29.0288 29.3306 29.1165 29.2939 29.1839 29.2268C29.251 29.1594 29.2877 29.0717 29.2877 28.9732V19.3436C29.2877 18.6548 29.8456 18.0959 30.5353 18.0959C31.2241 18.0959 31.783 18.6539 31.783 19.3436V19.3436L31.7826 27.0995V27.0995V27.1897C31.7826 27.3855 31.9433 27.5467 32.1404 27.5467C32.2369 27.5467 32.3247 27.5108 32.3947 27.4412C32.4611 27.3748 32.4978 27.2882 32.4978 27.1894V19.3432C32.4978 18.6544 33.0557 18.0955 33.7454 18.0955C34.4342 18.0955 34.993 18.6535 34.993 19.3432V19.3433L34.9923 25.2657C34.9923 25.2657 34.9923 25.2657 34.9923 25.2657C34.9923 25.4628 35.1536 25.6234 35.3493 25.6234C35.4475 25.6234 35.5348 25.5868 35.6024 25.5194C35.6697 25.4521 35.7063 25.3646 35.7063 25.2657L35.7067 13.2612C35.7067 9.5652 32.9839 6.66656 29.7673 6.66656C27.2172 6.66656 25.2092 8.08802 24.3532 10.5043L24.3527 10.5058C24.2906 10.6799 24.2204 10.8695 24.136 11.0592L24.1358 11.0596L24.1232 11.0878C24.0277 11.302 23.9692 11.4332 23.9282 11.5152C23.9045 11.5628 23.8765 11.6148 23.8399 11.6679C23.8153 11.7038 23.7909 11.7338 23.7738 11.754C23.4167 12.4121 22.4755 14.0417 19.9956 18.3355L19.9953 18.3359C19.9755 18.3701 19.9709 18.4057 19.9805 18.4427C19.991 18.481 20.0143 18.5101 20.0459 18.5284L19.7126 19.1058ZM19.7126 19.1058C20.2896 19.4372 21.0797 19.2233 21.4086 18.6503L19.4183 18.002C19.3099 18.1894 19.2811 18.4069 19.3364 18.615C19.3925 18.8231 19.5267 18.9985 19.7126 19.1058Z" fill="#4B789F" stroke="#4B789F" stroke-width="1.33333"/>
<path d="M12.5742 32.0289C12.4614 31.8408 12.3064 31.6909 12.1169 31.5847C11.7251 31.3679 11.2318 31.509 11.0161 31.8994C8.47177 36.4831 7.60445 38.0452 7.26975 38.6011L7.27738 38.6029C7.24937 38.696 7.24937 38.696 6.94307 39.1336C6.83902 39.2817 6.72589 39.4239 6.61057 39.564C4.80031 41.7573 4.59012 44.5174 6.04778 46.9478C6.9507 48.4531 8.44299 49.4852 10.2499 49.8541C12.0764 50.2255 14.0016 49.8799 15.6726 48.8773L25.9671 42.7017C26.2021 42.5609 26.368 42.3372 26.4342 42.072C26.5004 41.8072 26.4593 41.5318 26.3182 41.2968C26.0279 40.8129 25.3974 40.654 24.9136 40.9454L19.8351 43.9921C19.5601 44.1573 19.2029 44.0685 19.0381 43.7931C18.8729 43.5181 18.962 43.1612 19.2371 42.9961L24.3159 39.9493L25.9653 38.9598C26.2003 38.8187 26.3666 38.5949 26.4328 38.3305C26.499 38.0653 26.4579 37.7895 26.3167 37.5549C26.026 37.0707 25.3956 36.9131 24.9121 37.2035L18.1839 41.2397C17.9081 41.4052 17.552 41.3157 17.3868 41.0407C17.2217 40.7657 17.3112 40.4088 17.5858 40.2436L25.8434 35.29C26.0784 35.1488 26.2443 34.9255 26.3105 34.6603C26.3767 34.3954 26.3356 34.12 26.1949 33.885C26.0541 33.6504 25.8303 33.4845 25.5651 33.4183C25.2985 33.3521 25.0242 33.3932 24.7899 33.5336L23.2613 34.4507L16.5323 38.4873C16.2566 38.6532 15.9 38.5637 15.7353 38.2884C15.5701 38.0133 15.6596 37.6564 15.9342 37.4913L22.6625 33.455C22.8975 33.3139 23.0637 33.0902 23.13 32.8257C23.2027 32.5354 23.1474 32.2385 22.975 31.9897C22.6759 31.5572 22.0364 31.4422 21.5515 31.7336L11.2644 37.9049C11.0392 38.0395 10.7507 38.0068 10.5619 37.8245C10.3727 37.6419 10.3302 37.3549 10.4575 37.1253L12.5966 33.2714C12.8112 32.8861 12.803 32.4101 12.5742 32.0289Z" fill="#4B789F"/>
<path d="M46.2605 32.2221L46.2607 32.2223C48.6137 36.4616 49.5445 38.1376 49.9494 38.8186C49.9541 38.8336 49.9593 38.8493 49.9653 38.8654C49.994 38.9436 50.0296 39.0098 50.0646 39.0678C50.1215 39.1621 50.2145 39.2939 50.3511 39.4877L50.3714 39.5165C50.4893 39.6846 50.6153 39.843 50.7357 39.9887C52.3665 41.9644 52.5524 44.4172 51.2393 46.6048L51.2392 46.6049C50.4379 47.941 49.1097 48.8673 47.4759 49.201L46.2605 32.2221ZM46.2605 32.2221C46.2226 32.1536 46.1371 32.129 46.0689 32.1658C45.9789 32.2166 45.9098 32.2841 45.8572 32.3718L45.8572 32.3719M46.2605 32.2221L45.8572 32.3719M45.8572 32.3719C45.7504 32.5498 45.7477 32.7709 45.8461 32.9471L45.8469 32.9485M45.8572 32.3719L45.8469 32.9485M45.8469 32.9485L47.9851 36.8012C47.9852 36.8013 47.9852 36.8013 47.9852 36.8014C48.259 37.2944 48.1682 37.9098 47.7631 38.3024C47.3552 38.6985 46.7363 38.7638 46.255 38.4775L46.2529 38.4762M45.8469 32.9485L46.2529 38.4762M46.2529 38.4762L35.966 32.305C35.9659 32.305 35.9659 32.3049 35.9658 32.3049C35.9658 32.3049 35.9658 32.3049 35.9657 32.3049C35.7448 32.1725 35.5089 32.2592 35.4329 32.3688L35.4328 32.369C35.3683 32.462 35.3513 32.5622 35.3764 32.6638M46.2529 38.4762L35.3764 32.6638M35.3764 32.6638C35.3994 32.7553 35.4554 32.8316 35.5402 32.8825L35.5787 32.9056L35.5806 32.9071L42.2682 36.9192L42.2685 36.9193C42.8591 37.274 43.0504 38.0399 42.696 38.6308L42.6956 38.6315C42.3415 39.2203 41.5766 39.414 40.9842 39.0586C40.9842 39.0585 40.9841 39.0585 40.9841 39.0585L32.7268 34.1051C32.6433 34.055 32.5492 34.0413 32.4572 34.0645L32.456 34.0648C32.363 34.088 32.2872 34.1439 32.2371 34.2276L32.2363 34.229C32.1867 34.3113 32.1725 34.4052 32.1955 34.4994C32.2187 34.5911 32.2748 34.6676 32.3589 34.7182L35.3764 32.6638ZM31.5406 41.2968L32.1122 41.6398C32.1621 41.5568 32.2387 41.5002 32.332 41.4769C32.4261 41.4534 32.5193 41.4673 32.6026 41.5171C32.6026 41.5172 32.6027 41.5172 32.6028 41.5173L37.6799 44.5634L32.9455 40.9454C32.7113 40.805 32.4366 40.7635 32.1703 40.8301C31.9055 40.8963 31.6814 41.0622 31.5406 41.2968ZM31.5406 41.2968C31.3998 41.5319 31.3587 41.8076 31.4242 42.0721C31.4904 42.3369 31.6566 42.5603 31.892 42.7018M31.5406 41.2968L32.1125 41.6395C32.0622 41.7234 32.0483 41.8181 32.0711 41.9111M31.892 42.7018L32.235 42.1301L32.2354 42.1304C32.15 42.079 32.0941 42.0024 32.0711 41.9111M31.892 42.7018L32.2355 42.1304M31.892 42.7018L42.1866 48.8774L32.2355 42.1304M32.0711 41.9111C32.0712 41.9114 32.0712 41.9116 32.0713 41.9119L31.4243 42.0721L32.0709 41.9104C32.071 41.9106 32.0711 41.9109 32.0711 41.9111ZM32.2355 42.1304L42.5295 48.3057L42.5295 48.3057C44.0643 49.2265 45.8217 49.5385 47.4758 49.201L32.2355 42.1304ZM32.3593 34.7185L33.9658 35.6819L33.9659 35.682L40.6163 39.672L40.6165 39.6722C41.2072 40.0269 41.3984 40.7928 41.044 41.3837L41.0436 41.3843C40.6891 41.9739 39.9242 42.166 39.3327 41.8117L39.3322 41.8114L32.6047 37.7752L32.6041 37.7748C32.437 37.6743 32.2163 37.7283 32.1143 37.8982L32.1143 37.8982C32.0644 37.9812 32.0503 38.0752 32.0733 38.1693C32.0963 38.2605 32.1522 38.337 32.2374 38.3884C32.2375 38.3884 32.2376 38.3885 32.2377 38.3885L33.8866 39.3777L33.8866 39.3777L38.9647 42.4245L38.9649 42.4246C39.5556 42.7793 39.7468 43.5452 39.3924 44.1361L39.392 44.1367C39.0384 44.7248 38.2738 44.9202 37.6806 44.5638L32.3593 34.7185Z" fill="#4B789F" stroke="#4B789F" stroke-width="1.33333"/>
</svg>
