<svg width="56" height="56" viewBox="0 0 56 56" fill="none" xmlns="http://www.w3.org/2000/svg">
<g clip-path="url(#clip0_1347_22905)">
<path d="M20.063 27.7789C20.7111 28.4278 21.0752 29.3074 21.0752 30.2245C21.0752 31.1415 20.7111 32.0211 20.063 32.67L17.8158 34.9218H37.2288C38.1467 34.9218 39.027 35.2864 39.676 35.9354C40.3251 36.5844 40.6897 37.4646 40.6897 38.3825C40.6897 39.3003 40.3251 40.1806 39.676 40.8296C39.027 41.4786 38.1467 41.8432 37.2288 41.8432H17.8158L20.0653 44.0903C20.7146 44.7395 21.0793 45.6201 21.0793 46.5382C21.0793 47.4563 20.7146 48.3368 20.0653 48.9861C19.4161 49.6353 18.5355 50 17.6173 50C16.6992 50 15.8186 49.6353 15.1694 48.9861L7.01329 40.828C6.36448 40.1791 6 39.299 6 38.3813C6 37.4637 6.36448 36.5836 7.01329 35.9346L15.1694 27.7766C15.4908 27.455 15.8724 27.1999 16.2924 27.0258C16.7125 26.8518 17.1627 26.7622 17.6173 26.7622C18.072 26.7622 18.5222 26.8518 18.9423 27.0258C19.3623 27.1999 19.7439 27.455 20.0653 27.7766L20.063 27.7789ZM35.9368 7.01471C36.5421 6.40885 37.3507 6.04896 38.206 6.00464C39.0613 5.96032 39.9027 6.23472 40.5674 6.77477L40.8304 7.0124L48.9865 15.1704C49.5921 15.776 49.9515 16.5847 49.9954 17.4399C50.0393 18.2952 49.7645 19.1364 49.2242 19.8008L48.9865 20.0638L40.8304 28.2219C40.2046 28.8569 39.3579 29.2259 38.4667 29.252C37.5754 29.2781 36.7085 28.9593 36.0466 28.362C35.3847 27.7647 34.9789 26.9349 34.9137 26.0458C34.8486 25.1566 35.1291 24.2766 35.6968 23.5891L35.9345 23.3261L38.184 21.079H18.771C17.8778 21.0852 17.0168 20.7458 16.368 20.1318C15.7193 19.5178 15.3331 18.6768 15.2902 17.7846C15.2473 16.8925 15.551 16.0183 16.1378 15.3449C16.7246 14.6715 17.549 14.251 18.4387 14.1714L18.771 14.1576H38.184L35.9345 11.9081C35.6129 11.5868 35.3578 11.2051 35.1837 10.7851C35.0096 10.3651 34.92 9.91492 34.92 9.46027C34.92 9.00562 35.0096 8.55542 35.1837 8.1354C35.3578 7.71539 35.6129 7.33379 35.9345 7.0124L35.9368 7.01471Z" fill="#4B789F"/>
</g>
<defs>
<clipPath id="clip0_1347_22905">
<rect width="56" height="56" fill="white"/>
</clipPath>
</defs>
</svg>
