<svg width="57" height="56" viewBox="0 0 57 56" fill="none" xmlns="http://www.w3.org/2000/svg">
<path d="M44.5834 21C44.5844 18.1881 43.8595 15.4236 42.4788 12.974C41.0981 10.5244 39.1084 8.47276 36.7023 7.01765C34.2961 5.56255 31.5551 4.75326 28.7445 4.66813C25.9339 4.58301 23.1489 5.22492 20.6591 6.53175C18.1694 7.83857 16.0591 9.76604 14.5327 12.1276C13.0063 14.4891 12.1154 17.2047 11.9463 20.0115C11.7771 22.8183 12.3355 25.6212 13.5673 28.149C14.799 30.6767 16.6625 32.8436 18.9774 34.44L11.9167 46.6667L17.1807 46.8837L19.9994 51.3333L28.0867 37.324C28.1427 37.324 28.194 37.3333 28.25 37.3333C28.306 37.3333 28.3574 37.3263 28.4134 37.324L36.5007 51.3333L39.3754 46.9793L44.5834 46.6667L37.5227 34.44C39.7011 32.9401 41.4821 30.933 42.7121 28.5916C43.9422 26.2502 44.5844 23.6448 44.5834 21ZM16.5834 21C16.5834 18.6925 17.2676 16.4369 18.5495 14.5183C19.8315 12.5998 21.6536 11.1044 23.7854 10.2214C25.9172 9.33838 28.263 9.10734 30.5261 9.5575C32.7892 10.0077 34.868 11.1188 36.4996 12.7504C38.1312 14.382 39.2424 16.4608 39.6925 18.7239C40.1427 20.9871 39.9116 23.3328 39.0286 25.4646C38.1456 27.5964 36.6502 29.4185 34.7317 30.7005C32.8131 31.9824 30.5575 32.6667 28.25 32.6667C25.1558 32.6667 22.1884 31.4375 20.0004 29.2496C17.8125 27.0617 16.5834 24.0942 16.5834 21Z" fill="#4B789F"/>
<path d="M28.25 28C32.116 28 35.25 24.866 35.25 21C35.25 17.134 32.116 14 28.25 14C24.384 14 21.25 17.134 21.25 21C21.25 24.866 24.384 28 28.25 28Z" fill="#4B789F"/>
</svg>
