<svg width="230" height="32" viewBox="0 0 230 32" fill="none" xmlns="http://www.w3.org/2000/svg">
<path fill-rule="evenodd" clip-rule="evenodd" d="M18.8027 0.70874L37.6053 30.9332H32.5151L18.8027 8.89105L5.09022 30.9332H0L18.8027 0.70874Z" fill="#4B789F"/>
<path fill-rule="evenodd" clip-rule="evenodd" d="M50.8351 1.06665L54.6354 5.33332H70.3802C71.8426 5.33332 74.6243 5.58516 76.9738 7.01388C79.1542 8.33984 81.2387 10.8363 81.2387 16C81.2387 21.1637 79.1542 23.6601 76.9738 24.9861C74.6243 26.4148 71.8426 26.6666 70.3802 26.6666H54.6354L50.2922 30.9333H70.3802C72.1753 30.9333 75.9087 30.6518 79.2599 28.6139C82.7802 26.4732 85.582 22.5696 85.582 16C85.582 9.43035 82.7802 5.52679 79.2599 3.38608C75.9087 1.34814 72.1753 1.06665 70.3802 1.06665H50.8351Z" fill="#4B789F"/>
<path d="M126.808 6.93345C128.627 6.93345 130.102 5.50076 130.102 3.73345C130.102 1.96614 128.627 0.533447 126.808 0.533447C125.494 0.533447 124.36 1.2809 123.831 2.36202H101.436L98.6123 5.10488H123.831C124.36 6.18599 125.494 6.93345 126.808 6.93345Z" fill="#4B789F"/>
<path d="M126.808 31.4667C128.627 31.4667 130.102 30.034 130.102 28.2667C130.102 26.4993 128.627 25.0667 126.808 25.0667C125.494 25.0667 124.36 25.8141 123.831 26.8952H101.436L98.6123 29.6381H123.831C124.36 30.7192 125.494 31.4667 126.808 31.4667Z" fill="#4B789F"/>
<path d="M163.764 19.2C165.563 19.2 167.021 17.7674 167.021 16C167.021 14.2327 165.563 12.8 163.764 12.8C162.464 12.8 161.342 13.5475 160.82 14.6286H107.377L104.585 17.3715H160.82C161.342 18.4526 162.464 19.2 163.764 19.2Z" fill="#4B789F"/>
<path d="M175.708 16C175.708 22.5598 170.524 27.7333 164.306 27.7333C159.521 27.7333 155.348 24.6689 153.68 20.2667H149.13C150.959 26.9904 157.009 32 164.306 32C173.081 32 180.051 24.7569 180.051 16C180.051 7.24308 173.081 0 164.306 0C156.975 0 150.904 5.0559 149.104 11.8265H153.645C155.29 7.37433 159.488 4.26667 164.306 4.26667C170.524 4.26667 175.708 9.44023 175.708 16Z" fill="#4B789F"/>
<path d="M202.854 9.37813L230 31.7781V1.06669L225.656 5.33336V22.6219L198.51 0.221924V32L202.854 27.7334V9.37813Z" fill="#4B789F"/>
</svg>
